<?xml version="1.0" encoding="iso-8859-1"?>
<!-- Generator: Adobe Illustrator 16.0.0, SVG Export Plug-In . SVG Version: 6.00 Build 0)  -->
<!DOCTYPE svg PUBLIC "-//W3C//DTD SVG 1.1//EN" "http://www.w3.org/Graphics/SVG/1.1/DTD/svg11.dtd">
<svg version="1.1" id="Capa_1" xmlns="http://www.w3.org/2000/svg" xmlns:xlink="http://www.w3.org/1999/xlink" x="0px" y="0px"
	 width="94px" height="94px" viewBox="0 0 94 94" style="enable-background:new 0 0 94 94;" xml:space="preserve">
<g>
	<path d="M89,0H5C2.239,0,0,2.239,0,5v84c0,2.761,2.239,5,5,5h84c2.762,0,5-2.239,5-5V5C94,2.239,91.762,0,89,0z M64.993,24.266
		c4.519,0,8.18,3.662,8.18,8.18s-3.661,8.18-8.18,8.18s-8.181-3.662-8.181-8.18S60.477,24.266,64.993,24.266z M33.878,18.653
		c4.518,0,8.18,3.662,8.18,8.179c0,4.518-3.662,8.18-8.18,8.18s-8.18-3.662-8.18-8.18C25.699,22.314,29.361,18.653,33.878,18.653z
		 M85.54,63.857c-10.965,7.643-22.049,11.49-33.056,11.49c-2.819,0-5.632-0.253-8.438-0.759C21.33,70.496,7.742,51.199,7.175,50.379
		c-1.614-2.331-1.033-5.528,1.298-7.141c2.326-1.612,5.519-1.035,7.135,1.289c1.065,1.525,26.544,37.06,64.063,10.909
		c2.325-1.619,5.522-1.049,7.146,1.276C88.438,59.038,87.866,62.236,85.54,63.857z"/>
</g>
<g>
</g>
<g>
</g>
<g>
</g>
<g>
</g>
<g>
</g>
<g>
</g>
<g>
</g>
<g>
</g>
<g>
</g>
<g>
</g>
<g>
</g>
<g>
</g>
<g>
</g>
<g>
</g>
<g>
</g>
</svg>
